<svg  class="play" version="1.1" id="Layer_1" xmlns="http://www.w3.org/2000/svg" xmlns:xlink="http://www.w3.org/1999/xlink" x="0px" y="0px"
	 width="100px" height="100px" viewBox="0 0 100 100" enable-background="new 0 0 100 100" xml:space="preserve">
<g>
	<path fill="#F8D521" d="M49.984,7.918h0.051V0.692h-0.051c-27.093,0-49.135,22.042-49.135,49.136c0,4.051,0.495,8.08,1.471,11.976
		l7.009-1.755c-0.832-3.321-1.254-6.76-1.254-10.221C8.076,26.719,26.875,7.918,49.984,7.918z">
			 <animateTransform attributeName="transform"
				 attributeType="XML"
				 type="rotate"
				 from="0 50 50"
				 to="360 50 50"
				 dur="10s"
				 repeatCount="indefinite"/>
	</path>

	<path fill="#F8D521" d="M97.638,37.798L90.63,39.56c0.841,3.338,1.267,6.792,1.267,10.269c0,23.105-18.803,41.907-41.912,41.907
		h-0.101v7.227h0.101c27.095,0,49.136-22.042,49.136-49.134C99.12,45.758,98.623,41.709,97.638,37.798z">
			 <animateTransform attributeName="transform"
				 attributeType="XML"
				 type="rotate"
				 from="0 50 50"
				 to="360 50 50"
				 dur="10s"
				 repeatCount="indefinite"/>
	</path>
</g>
<path fill="#F8D521" d="M86.054,49.908v-0.08c0-15.824-10.578-30.036-25.725-34.564l0.738-2.463
	c7.799,2.331,14.818,7.211,19.756,13.74c5.104,6.751,7.799,14.806,7.799,23.288v0.08H86.054z M49.984,88.465
	c-6.814,0-13.513-1.796-19.372-5.195l1.292-2.227c5.469,3.177,11.721,4.854,18.08,4.854c9.225,0,18.002-3.481,24.714-9.798
	l1.764,1.872C69.269,84.739,59.866,88.465,49.984,88.465z M13.916,49.828c0,2.802,0.324,5.593,0.959,8.296l-2.503,0.588
	c-0.681-2.893-1.025-5.884-1.025-8.884c0-13.763,7.409-26.593,19.341-33.482l1.286,2.226C20.833,25.005,13.916,36.981,13.916,49.828
	z">
		 <animateTransform attributeName="transform"
			 attributeType="XML"
			 type="rotate"
			 from="360 50 50"
			 to="0 50 50"
			 dur="8s"
			 repeatCount="indefinite"/>
</path>
<path fill="#F8D521" d="M72.468,72.312c-3.958,3.959-8.895,6.81-14.272,8.237l-0.859-3.229c4.809-1.28,9.227-3.827,12.768-7.372
	c5.378-5.372,8.336-12.52,8.336-20.119c0-0.97-0.051-1.951-0.148-2.918l3.325-0.34c0.11,1.079,0.164,2.173,0.164,3.259
	C81.78,58.321,78.479,66.304,72.468,72.312z M70.127,29.729l-0.023-0.02c-5.371-5.376-12.521-8.335-20.119-8.335
	c-7.598,0-14.745,2.959-20.119,8.335c-5.375,5.374-8.334,12.518-8.334,20.12c0,7.6,2.959,14.747,8.334,20.119
	c1.473,1.476,3.099,2.783,4.84,3.892l-1.799,2.819c-1.943-1.239-3.763-2.701-5.408-4.347c-6.004-6.008-9.312-13.99-9.312-22.483
	c0-8.496,3.308-16.48,9.312-22.486c6.008-6.004,13.991-9.313,22.485-9.313c8.493,0,16.479,3.31,22.483,9.313l0.021,0.022
	L70.127,29.729z">
		 <animateTransform attributeName="transform"
			 attributeType="XML"
			 type="rotate"
			 from="360 50 50"
			 to="0 50 50"
			 dur="8s"
			 repeatCount="indefinite"/>
</path>
<path fill="#F8D521" d="M74.208,49.828v0.049h-3.562v-0.049c0-11.394-9.267-20.661-20.661-20.661c-1.714,0-3.415,0.209-5.061,0.625
	l-0.869-3.453c1.929-0.487,3.923-0.732,5.929-0.732C63.339,25.607,74.208,36.472,74.208,49.828z M29.324,49.828
	c0,11.391,9.27,20.659,20.661,20.659c1.707,0,3.401-0.21,5.04-0.619l0.864,3.455c-1.922,0.483-3.91,0.726-5.904,0.726
	c-13.356,0-24.221-10.864-24.221-24.221v-0.027h3.56V49.828z">
		 <animateTransform attributeName="transform"
			 attributeType="XML"
			 type="rotate"
			 from="0 50 50"
			 to="360 50 50"
			 dur="6s"
			 repeatCount="indefinite"/>
</path>
	<g>
		<path fill="#FFFFFF" d="M36.749,49.797c0-7.382,5.982-13.365,13.36-13.365c7.379,0,13.362,5.983,13.362,13.365
			c0,7.376-5.982,13.359-13.362,13.359C42.731,63.156,36.749,57.173,36.749,49.797z"/>
	</g>
	<polygon fill="#020202" points="45.671,49.965 45.671,43.712 51.087,46.838 56.502,49.965 51.087,53.091 45.671,56.218 "/>
</svg>
